<?xml version="1.0" encoding="UTF-8"?>
<svg id="Capa_1" data-name="Capa 1" xmlns="http://www.w3.org/2000/svg" viewBox="0 0 300 300">
  <g>
    <circle cx="185.44" cy="50.92" r="44.92"/>
    <rect x="64.3" y="6" width="68.06" height="219.41" rx="34.03" ry="34.03"/>
  </g>
  <g>
    <path d="m23,293.75v-35.49h15.19c1.57,0,3,.33,4.3.98,1.3.65,2.43,1.52,3.4,2.6.97,1.08,1.72,2.3,2.25,3.65.53,1.35.8,2.72.8,4.12,0,1.63-.31,3.18-.92,4.65-.62,1.47-1.48,2.72-2.6,3.75-1.12,1.03-2.42,1.75-3.92,2.15l8.6,13.6h-5.1l-8.1-12.75h-9.4v12.75h-4.5Zm4.5-16.74h10.75c1.23,0,2.31-.34,3.22-1.02.92-.68,1.63-1.59,2.15-2.72.52-1.13.77-2.35.77-3.65s-.3-2.56-.9-3.67c-.6-1.12-1.38-2.01-2.35-2.67-.97-.67-2.03-1-3.2-1h-10.45v14.74Z"/>
    <path d="m79.93,289.75v4h-24.09v-35.49h23.64v4h-19.14v11.5h16.64v3.75h-16.64v12.25h19.59Z"/>
    <path d="m90.57,266.56v27.19h-4.5v-35.49h3.8l21.69,27.74v-27.69h4.5v35.44h-4.1l-21.39-27.19Z"/>
    <path d="m150.15,262.26h-12.25v31.49h-4.5v-31.49h-12.25v-4h28.99v4Z"/>
    <path d="m179.34,286.55v7.2h-24.94v-35.49h24.49v7.2h-16.29v6.9h14v6.65h-14v7.55h16.74Z"/>
    <path d="m193.28,258.26h8.8l12.3,35.49h-8.4l-2.41-7.95h-11.72l-2.42,7.95h-8.4l12.25-35.49Zm8.59,21.94l-4.15-13.69-4.17,13.69h8.32Z"/>
    <path d="m238.67,268.66c-.1-.1-.46-.34-1.07-.73-.62-.38-1.37-.77-2.25-1.17-.88-.4-1.86-.74-2.92-1.03-1.07-.28-2.13-.42-3.2-.42-1.4,0-2.48.25-3.25.74-.77.49-1.15,1.22-1.15,2.18,0,.76.29,1.38.87,1.86.58.48,1.42.89,2.52,1.24,1.1.35,2.45.73,4.05,1.16,2.27.63,4.23,1.36,5.9,2.2,1.67.84,2.94,1.92,3.82,3.25.88,1.32,1.32,3.07,1.32,5.25,0,1.95-.36,3.63-1.07,5.03-.72,1.4-1.72,2.53-3,3.37-1.28.84-2.72,1.45-4.3,1.83-1.58.38-3.22.57-4.92.57s-3.51-.18-5.32-.55c-1.82-.37-3.56-.88-5.22-1.55-1.67-.67-3.2-1.43-4.6-2.3l3.55-7.2c.17.2.62.52,1.35.95.73.43,1.64.89,2.72,1.37,1.08.48,2.29.92,3.62,1.3,1.33.38,2.67.58,4,.58,1.5,0,2.61-.24,3.32-.71.72-.47,1.07-1.11,1.07-1.92,0-.86-.37-1.55-1.12-2.06-.75-.51-1.77-.98-3.05-1.39-1.28-.41-2.76-.85-4.42-1.32-2.17-.69-3.96-1.45-5.37-2.26-1.42-.81-2.47-1.81-3.15-3-.68-1.19-1.02-2.66-1.02-4.42,0-2.51.59-4.62,1.77-6.33,1.18-1.7,2.77-2.99,4.77-3.87,2-.88,4.18-1.32,6.55-1.32,1.7,0,3.32.2,4.85.6,1.53.4,2.98.9,4.35,1.5,1.37.6,2.55,1.22,3.55,1.85l-3.55,6.7Z"/>
    <path d="m252.61,258.26l7.65,15.69,7.8-15.69h8.95l-12.65,23.39v12.1h-8.15v-12.2l-12.45-23.29h8.85Z"/>
  </g>
</svg>