<?xml version="1.0" encoding="UTF-8"?>
<svg id="Capa_2" data-name="Capa 2" xmlns="http://www.w3.org/2000/svg" viewBox="0 0 126.79 115.84">
  <defs>
    <style>
      .cls-1 {
        fill: #fff;
      }
    </style>
  </defs>
  <g id="Capa_1-2" data-name="Capa 1">
    <g id="_3mvuFm" data-name="3mvuFm">
      <g>
        <path d="m126.79,94.52c-.16.5-.39.99-.46,1.5-1.08,8.92-8.06,16.93-16.8,18.92-2.71.62-5.57.85-8.36.86-25.01.06-50.01.03-75.02.02-4.65,0-9.25-.27-13.52-2.44-6.97-3.55-11.05-9.21-12.36-16.9-1.01-5.9.79-11.18,3.66-16.2,4.97-8.71,9.93-17.43,14.94-26.12,7.76-13.44,15.53-26.87,23.35-40.28,2.02-3.46,4.24-6.79,7.52-9.27C55.03.62,60.91-.75,67.39.39c7.28,1.28,12.33,5.64,15.96,11.84,6.54,11.19,13.06,22.39,19.56,33.6,5.76,9.93,11.5,19.86,17.19,29.83,1.61,2.83,3.06,5.75,4.53,8.66,1,1.97,1.63,4.06,1.58,6.3,0,.27.09.53.17,1.03.2-.52.3-.81.41-1.1v3.97Zm-62.98,11.02s0,.05,0,.07c13.19,0,26.37-.02,39.56.01,4.02.01,7.48-1.17,10.13-4.29,3.8-4.48,4.02-9.98.73-15.65-10.84-18.67-21.67-37.34-32.49-56.03-2.63-4.54-5.12-9.15-7.8-13.65-4.79-8.06-16.6-8.12-21.44.24-.93,1.61-1.79,3.25-2.72,4.86-4.8,8.33-9.6,16.67-14.42,24.99-7.17,12.4-14.37,24.78-21.51,37.2-1.61,2.81-3.47,5.49-3.82,8.9-.66,6.33,4.19,12.64,10.53,13.24,2.58.24,5.2.1,7.8.1,11.82,0,23.64,0,35.47,0Z"/>
        <path class="cls-1" d="m63.81,105.54c-11.82,0-23.64,0-35.47,0-2.6,0-5.22.14-7.8-.1-6.34-.6-11.19-6.91-10.53-13.24.36-3.41,2.21-6.1,3.82-8.9,7.14-12.41,14.34-24.8,21.51-37.2,4.81-8.33,9.62-16.66,14.42-24.99.93-1.61,1.79-3.26,2.72-4.86,4.85-8.36,16.65-8.3,21.44-.24,2.68,4.5,5.17,9.12,7.8,13.65,10.82,18.68,21.65,37.36,32.49,56.03,3.29,5.67,3.07,11.18-.73,15.65-2.65,3.12-6.11,4.3-10.13,4.29-13.19-.03-26.37-.01-39.56-.01,0-.02,0-.05,0-.07Zm-7-56.89c.08,0,.16,0,.24,0,.43,7.42.85,14.84,1.3,22.26.06.9.23,1.81.51,2.67.91,2.77,4.24,4.02,6.79,2.61,2.1-1.16,2.49-3.13,2.6-5.27.37-7.34.78-14.68,1.12-22.02.12-2.59.3-5.21.07-7.79-.35-3.97-4.36-6.52-8-5.34-2.67.87-4.52,3.45-4.61,6.56-.06,2.1-.01,4.21-.01,6.31Zm12.68,39.33c-.02-3.57-2.81-6.52-6.12-6.48-3.46.04-6.42,2.98-6.43,6.4-.02,3.32,3.03,6.36,6.34,6.33,3.39-.03,6.24-2.88,6.22-6.25Z"/>
        <path d="m56.81,48.64c0-2.1-.05-4.21.01-6.31.09-3.11,1.94-5.69,4.61-6.56,3.64-1.18,7.65,1.37,8,5.34.23,2.57.05,5.19-.07,7.79-.34,7.34-.75,14.68-1.12,22.02-.11,2.14-.5,4.11-2.6,5.27-2.56,1.41-5.89.16-6.79-2.61-.28-.85-.45-1.77-.51-2.67-.46-7.42-.87-14.84-1.3-22.26-.08,0-.16,0-.24,0Z"/>
        <path d="m69.49,87.97c.02,3.36-2.83,6.22-6.22,6.25-3.31.02-6.36-3.02-6.34-6.33.02-3.41,2.97-6.35,6.43-6.4,3.31-.04,6.1,2.91,6.12,6.48Z"/>
      </g>
    </g>
  </g>
</svg>