<?xml version="1.0" encoding="utf-8"?>
<!-- Generator: Adobe Illustrator 27.5.0, SVG Export Plug-In . SVG Version: 6.00 Build 0)  -->
<svg version="1.1" id="Capa_1" xmlns="http://www.w3.org/2000/svg" xmlns:xlink="http://www.w3.org/1999/xlink" x="0px" y="0px"
	 viewBox="0 0 130 130" style="enable-background:new 0 0 130 130;" xml:space="preserve">
<style type="text/css">
	.st0{fill:#FFFFFF;}
	.st1{opacity:0.4;clip-path:url(#SVGID_00000160895438360735133040000001850420817124112546_);}
	.st2{fill:#FFFFFF;stroke:#000000;stroke-miterlimit:10;}
	.st3{opacity:0.15;}
	.st4{clip-path:url(#SVGID_00000163764691012600997960000006401871055277881254_);}
	.st5{fill:none;stroke:#000000;stroke-miterlimit:10;}
	.st6{fill:none;stroke:#FF0000;stroke-width:4;stroke-miterlimit:10;}
</style>
<g id="SZuZO2_00000015331281488450606430000013193583699109704855_">
	<g>
		<path class="st0" d="M24.532,71.188c0.082-0.135,0.165-0.27,0.247-0.405c0.603,0,1.206,0,1.809,0
			c29.477-0.003,58.954-0.006,88.431-0.013c0.909,0,1.822,0.005,2.727-0.071c3.943-0.331,6.03-3.983,4.349-7.563
			c-1.143-2.433-3.271-2.931-5.673-2.931c-30.014,0.007-60.029,0.011-90.043,0.016c-0.546,0-1.092,0-1.838,0
			c0.277-0.368,0.378-0.542,0.515-0.68c8.592-8.596,17.192-17.183,25.773-25.789c0.813-0.815,1.6-1.686,2.237-2.639
			c1.227-1.838,1.111-3.787-0.029-5.606c-1.882-3.005-5.69-3.227-8.399-0.521c-9.566,9.553-19.125,19.113-28.672,28.683
			c-2.715,2.721-5.431,5.445-8.057,8.25c-2.063,2.204-2.024,4.871-0.056,7.153c0.431,0.5,0.906,0.963,1.374,1.43
			C19.84,81.112,30.454,91.72,41.073,102.325c1.432,1.431,2.844,2.886,4.338,4.25c1.489,1.359,3.282,1.583,5.086,0.79
			c1.938-0.852,3.155-2.363,3.361-4.548c0.221-2.343-1.253-3.827-2.729-5.302c-8.042-8.036-16.083-16.073-24.135-24.099
			C26.211,72.635,25.355,71.929,24.532,71.188z"/>
		<path d="M24.532,71.188c0.822,0.741,1.678,1.448,2.461,2.228c8.052,8.026,16.093,16.063,24.135,24.099
			c1.476,1.475,2.95,2.959,2.729,5.302c-0.206,2.185-1.423,3.696-3.361,4.548c-1.803,0.793-3.597,0.569-5.086-0.79
			c-1.494-1.364-2.906-2.819-4.338-4.25C30.454,91.72,19.84,81.112,9.225,70.503c-0.468-0.467-0.943-0.93-1.374-1.43
			c-1.968-2.282-2.007-4.949,0.056-7.153c2.627-2.806,5.342-5.529,8.057-8.25c9.548-9.571,19.107-19.13,28.672-28.683
			c2.709-2.706,6.517-2.484,8.399,0.521c1.14,1.82,1.256,3.768,0.029,5.606c-0.637,0.954-1.424,1.824-2.237,2.639
			c-8.581,8.606-17.181,17.194-25.773,25.789c-0.137,0.137-0.238,0.311-0.515,0.68c0.745,0,1.292,0,1.838,0
			c30.014-0.005,60.029-0.008,90.043-0.016c2.402-0.001,4.531,0.498,5.673,2.931c1.682,3.58-0.406,7.232-4.349,7.563
			c-0.905,0.076-1.818,0.071-2.727,0.071c-29.477,0.007-58.954,0.009-88.431,0.013c-0.603,0-1.206,0-1.809,0
			C24.697,70.918,24.615,71.053,24.532,71.188z"/>
	</g>
</g>
</svg>
