<?xml version="1.0" encoding="UTF-8"?>
<svg id="Capa_2" data-name="Capa 2" xmlns="http://www.w3.org/2000/svg" viewBox="0 0 108.2 108.19">
  <defs>
    <style>
      .cls-1 {
        fill: #fff;
      }
    </style>
  </defs>
  <g id="Capa_1-2" data-name="Capa 1">
    <g id="wfodwM">
      <g>
        <path class="cls-1" d="m79.89,73.49c.32-.43.57-.77.82-1.11,8.7-11.82,11.68-24.77,7.77-39.11C81.95,9.36,57.03-4.93,33.43,1.57,8.55,8.41-4.78,34.38,1.58,56.7c6.55,22.99,28.5,35.01,46.75,33.22,8.94-.88,16.97-3.84,24.09-9.28.93-.71,1.45-.75,2.32.12,7.77,7.84,15.6,15.64,23.41,23.45,1,1,1.93,2.06,3,2.97,1.64,1.4,3.88,1.32,5.56-.09,1.57-1.31,1.99-3.55.9-5.35-.48-.79-1.14-1.49-1.8-2.15-8.23-8.25-16.48-16.48-24.72-24.72-.42-.42-.78-.91-1.18-1.37Z"/>
        <path d="m79.89,73.49c.4.47.75.95,1.18,1.37,8.24,8.24,16.49,16.48,24.72,24.72.66.66,1.32,1.36,1.8,2.15,1.09,1.8.67,4.04-.9,5.35-1.68,1.41-3.92,1.49-5.56.09-1.07-.91-2-1.98-3-2.97-7.81-7.81-15.63-15.6-23.41-23.45-.87-.87-1.39-.83-2.32-.12-7.12,5.43-15.16,8.4-24.09,9.28-18.25,1.79-40.2-10.23-46.75-33.22C-4.78,34.38,8.55,8.41,33.43,1.57c23.61-6.5,48.52,7.79,55.05,31.71,3.91,14.34.93,27.29-7.77,39.11-.25.34-.5.67-.82,1.11Zm-35.69,7.54c18.98.87,35.81-14.52,36.97-33.39,1.37-22.37-16.53-38.28-34.97-38.79-19.41-.54-36.23,14.71-37.27,34.11-1.14,21.19,15.97,38.21,35.27,38.08Z"/>
        <path class="cls-1" d="m44.2,81.03c-19.3.14-36.41-16.89-35.27-38.08C9.97,23.56,26.79,8.32,46.2,8.85c18.44.51,36.34,16.42,34.97,38.79-1.16,18.87-17.99,34.26-36.97,33.39Z"/>
      </g>
    </g>
  </g>
</svg>