<?xml version="1.0" encoding="UTF-8"?>
<svg id="Capa_2" data-name="Capa 2" xmlns="http://www.w3.org/2000/svg" viewBox="0 0 105.95 105.69">
  <defs>
    <style>
      .cls-1 {
        fill: #fff;
      }
    </style>
  </defs>
  <g id="Capa_1-2" data-name="Capa 1">
    <g id="_4Mh5dq" data-name="4Mh5dq">
      <g>
        <path class="cls-1" d="m0,52.85c.52,3.84.77,7.74,1.62,11.51,6.18,27.53,32.38,44.29,57.96,40.9,11.25-1.49,21.09-5.98,29.36-13.7,10.73-10.01,16.35-22.48,16.91-37.1.15-3.89-.46-7.82-.96-11.71-.31-2.4-2.3-3.93-4.65-4.08-2.34-.14-4.6,1.19-5.21,3.37-.31,1.1-.27,2.38-.09,3.53.8,5.28.79,10.55-.26,15.79-3.78,18.86-20.16,32.91-38.97,33.79-14.1.66-25.87-4.26-35.02-14.95-11.94-13.95-13.51-34.08-3.59-49.66,9.51-14.95,23.51-21.3,41.09-19.78,4.99.43,9.65,2.11,14.18,4.19.55.25,1.18.43,1.77.45,2.35.08,4.66-1.64,5.22-3.81.65-2.5-.49-5.04-2.92-6.2C69.77,2.23,62.73.33,55.34.04c-7.17-.28-14.15.88-20.89,3.43C14.35,11.09.35,30.45,0,52.85Zm52.15,7.47c-1.04-1.1-1.98-2.13-2.96-3.12-4.4-4.43-8.78-8.87-13.22-13.26-2.19-2.16-5.39-2.1-7.4.04-2.05,2.19-2.04,5.1.21,7.45,3.52,3.67,7.11,7.27,10.71,10.86,3.39,3.39,6.81,6.75,10.28,10.06,1.97,1.88,4.32,2.36,6.21,1.07,1.13-.77,2.13-1.97,2.77-3.19,4.77-9.16,10.2-17.83,17.34-25.38,6.7-7.08,13.84-13.62,22.13-18.82,1.82-1.14,3.68-2.22,5.45-3.43,1.85-1.26,2.59-3.32,2.15-5.28-.67-2.98-4.32-5.46-8.17-3.13-6.87,4.15-13.46,8.71-19.53,13.97-9.39,8.12-17.13,17.65-23.58,28.24-.75,1.23-1.5,2.46-2.39,3.92Z"/>
        <path d="m0,52.85C.35,30.45,14.35,11.09,34.46,3.47,41.19.92,48.17-.24,55.34.04c7.39.29,14.43,2.19,21.1,5.36,2.43,1.16,3.57,3.7,2.92,6.2-.57,2.17-2.88,3.89-5.22,3.81-.6-.02-1.23-.2-1.77-.45-4.53-2.08-9.19-3.76-14.18-4.19-17.58-1.53-31.58,4.83-41.09,19.78-9.92,15.58-8.35,35.71,3.59,49.66,9.15,10.69,20.92,15.61,35.02,14.95,18.81-.88,35.19-14.93,38.97-33.79,1.05-5.24,1.06-10.5.26-15.79-.17-1.15-.22-2.43.09-3.53.61-2.18,2.87-3.51,5.21-3.37,2.35.14,4.34,1.67,4.65,4.08.5,3.88,1.11,7.82.96,11.71-.56,14.63-6.18,27.1-16.91,37.1-8.28,7.72-18.11,12.21-29.36,13.7-25.58,3.39-51.78-13.37-57.96-40.9-.85-3.77-1.09-7.67-1.62-11.51Z"/>
        <path d="m52.15,60.32c.89-1.46,1.64-2.69,2.39-3.92,6.45-10.59,14.19-20.12,23.58-28.24,6.07-5.25,12.66-9.81,19.53-13.97,3.85-2.33,7.5.15,8.17,3.13.44,1.97-.3,4.02-2.15,5.28-1.77,1.21-3.63,2.29-5.45,3.43-8.29,5.2-15.42,11.73-22.13,18.82-7.15,7.55-12.57,16.23-17.34,25.38-.64,1.23-1.64,2.42-2.77,3.19-1.89,1.29-4.24.8-6.21-1.07-3.47-3.31-6.88-6.68-10.28-10.06-3.6-3.59-7.19-7.19-10.71-10.86-2.25-2.35-2.27-5.26-.21-7.45,2-2.14,5.21-2.2,7.4-.04,4.44,4.39,8.82,8.83,13.22,13.26.98.99,1.92,2.02,2.96,3.12Z"/>
      </g>
    </g>
  </g>
</svg>