<?xml version="1.0" encoding="UTF-8"?>
<svg id="Capa_2" data-name="Capa 2" xmlns="http://www.w3.org/2000/svg" viewBox="0 0 126.8 126.75">
  <g id="Capa_1-2" data-name="Capa 1">
    <g id="N0OgJ7">
      <g>
        <path d="m1.77,126.75c-.06-.11-.1-.26-.19-.31-1.92-1.04-1.72-2.65-1.29-4.4,2.37-9.48,4.74-18.96,7.06-28.46.42-1.71,1.45-2.91,2.63-4.09,15.57-15.53,31.13-31.06,46.68-46.6,7.02-7.01,14.01-14.05,21.01-21.07.14-.14.31-.26.39-.32,8.97,9,17.92,17.96,26.94,27.01.02-.03-.13.21-.32.4-22.68,22.68-45.36,45.35-68.03,68.04-1.11,1.11-2.32,1.9-3.88,2.27-8.94,2.17-17.86,4.41-26.79,6.61-.67.17-1.38.21-2.16.32.25.23.46.41.67.6H1.77Z"/>
        <path d="m126.8,22.06c-.14.6-.31,1.19-.43,1.8-.49,2.59-1.64,4.85-3.46,6.73-3.05,3.14-6.16,6.23-9.25,9.33-.11.11-.27.18-.5.33-.53-.5-1.08-.98-1.59-1.49-8.14-8.16-16.26-16.34-24.42-24.48-.81-.81-.82-1.22.04-2.03,2.6-2.48,5.1-5.06,7.61-7.64C97.73,1.59,101.24-.09,105.49,0c3.7.08,6.97,1.36,9.63,3.93,2.61,2.52,5.14,5.15,7.63,7.79,1.87,1.99,3.19,4.3,3.59,7.07.04.28.3.53.46.79v2.48Z"/>
      </g>
    </g>
  </g>
</svg>