<?xml version="1.0" encoding="UTF-8"?>
<svg id="Capa_2" data-name="Capa 2" xmlns="http://www.w3.org/2000/svg" viewBox="0 0 97.99 119.49">
  <defs>
    <style>
      .cls-1 {
        fill: #fff;
      }
    </style>
  </defs>
  <g id="Capa_1-2" data-name="Capa 1">
    <g id="r8yfJV">
      <g>
        <path class="cls-1" d="m6.66,29.89c.02.43.02.75.05,1.08.52,5.68,1.06,11.36,1.57,17.04.82,9.08,1.61,18.16,2.43,27.24.52,5.8,1.08,11.61,1.6,17.41.68,7.51,1.32,15.01,2.03,22.52.23,2.46,1.74,3.9,4.19,4.22.58.08,1.16.08,1.75.08,19.13,0,38.25,0,57.38,0,.75,0,1.5,0,2.24-.1,2.16-.27,3.49-1.54,3.71-3.72.61-5.8,1.17-11.6,1.7-17.4.54-5.93,1.01-11.87,1.55-17.79.8-8.71,1.64-17.41,2.45-26.11.57-6.18,1.13-12.35,1.69-18.53.18-1.94.33-3.88.5-5.93H6.66Zm91.23-4.22c0-2.7.26-5.37-.06-7.97-.45-3.67-3.19-6.31-6.79-6.85-1.59-.24-3.24-.09-4.87-.09-25.83,0-51.66,0-77.5,0-4.38,0-8.01,2.85-8.52,7.06-.31,2.57-.06,5.21-.06,7.86h97.8ZM30.9,6.38h36.29c-.62-1.58-1.2-2.98-1.72-4.42C64.94.49,63.93-.02,62.4,0c-5.54.06-11.08.04-16.62.05-3.33,0-6.67-.06-10,.04-.84.02-2.07.29-2.42.87-.99,1.64-1.62,3.5-2.46,5.43Z"/>
        <path d="m6.66,29.89h84.85c-.17,2.05-.33,3.99-.5,5.93-.56,6.18-1.12,12.36-1.69,18.53-.81,8.7-1.65,17.41-2.45,26.11-.54,5.93-1.01,11.87-1.55,17.79-.53,5.8-1.09,11.6-1.7,17.4-.23,2.18-1.56,3.45-3.71,3.72-.74.09-1.5.1-2.24.1-19.13,0-38.25,0-57.38,0-.58,0-1.17,0-1.75-.08-2.44-.32-3.95-1.77-4.19-4.22-.71-7.5-1.35-15.01-2.03-22.52-.53-5.8-1.08-11.61-1.6-17.41-.82-9.08-1.61-18.16-2.43-27.24-.51-5.68-1.05-11.36-1.57-17.04-.03-.32-.03-.65-.05-1.08Zm67.92,10.04c0-.54,0-1.08,0-1.62.02-.97-.49-1.56-1.34-1.9-1.54-.61-2.82.36-2.94,2.33-.45,7.56-.85,15.13-1.28,22.69-.49,8.6-.98,17.2-1.5,25.8-.44,7.4-.92,14.79-1.37,22.18-.04.58-.07,1.17,0,1.74.16,1.28.86,1.93,2.02,1.95,1.31.02,2.02-.51,2.16-1.88.19-1.82.25-3.65.36-5.48.46-7.98.92-15.96,1.38-23.94.35-6.11.71-12.22,1.07-18.33.47-7.85.96-15.7,1.44-23.56Zm-51.1.25s.04,0,.06,0c.22,3.78.43,7.56.66,11.34.61,10.1,1.25,20.19,1.83,30.29.55,9.48,1.05,18.95,1.58,28.43.02.41.1.83.17,1.23.2,1.14,1.03,1.63,2.04,1.68,1.05.05,1.87-.51,2.06-1.61.12-.68.1-1.41.06-2.11-.37-6.19-.77-12.38-1.14-18.57-.46-7.73-.92-15.46-1.36-23.19-.48-8.27-.93-16.54-1.4-24.81-.09-1.54-.13-3.08-.28-4.61-.14-1.36-1-2.07-2.24-2.01-1.32.07-1.98.76-2.04,2.18-.02.58,0,1.17,0,1.75Zm27.62,34.58s-.03,0-.05,0c0-1.67,0-3.33,0-5,0-10.46,0-20.91,0-31.37,0-1.17-.92-2.06-2.02-2.05-1.14.02-1.93.79-1.98,1.94-.02.46-.02.92-.02,1.37,0,22.33,0,44.66,0,66.99,0,1.54-.05,3.08,0,4.62.05,1.25,1.09,2.01,2.32,1.8,1.33-.23,1.75-.92,1.75-2.82,0-11.83,0-23.66,0-35.5Z"/>
        <path d="m97.89,25.68H.1c0-2.65-.26-5.29.06-7.86.51-4.21,4.15-7.06,8.52-7.06,25.83,0,51.66,0,77.5,0,1.62,0,3.27-.14,4.87.09,3.6.54,6.34,3.18,6.79,6.85.32,2.6.06,5.28.06,7.97Z"/>
        <path d="m30.9,6.38c.84-1.93,1.47-3.79,2.46-5.43.35-.58,1.58-.84,2.42-.87,3.33-.09,6.66-.03,10-.04,5.54,0,11.08.02,16.62-.05,1.53-.02,2.55.48,3.07,1.96.51,1.43,1.1,2.84,1.72,4.42H30.9Z"/>
        <path class="cls-1" d="m74.59,39.94c-.48,7.85-.97,15.7-1.44,23.56-.37,6.11-.72,12.22-1.07,18.33-.46,7.98-.92,15.96-1.38,23.94-.11,1.83-.17,3.66-.36,5.48-.14,1.37-.85,1.9-2.16,1.88-1.16-.02-1.86-.67-2.02-1.95-.07-.57-.04-1.16,0-1.74.45-7.39.93-14.79,1.37-22.18.51-8.6,1.01-17.2,1.5-25.8.43-7.56.83-15.13,1.28-22.69.12-1.96,1.41-2.94,2.94-2.33.85.34,1.36.93,1.34,1.9-.01.54,0,1.08,0,1.62Z"/>
        <path class="cls-1" d="m23.49,40.19c0-.58-.02-1.17,0-1.75.06-1.41.72-2.11,2.04-2.18,1.24-.06,2.1.65,2.24,2.01.15,1.53.2,3.07.28,4.61.47,8.27.93,16.54,1.4,24.81.44,7.73.9,15.46,1.36,23.19.37,6.19.77,12.38,1.14,18.57.04.7.06,1.42-.06,2.11-.2,1.1-1.01,1.66-2.06,1.61-1.01-.05-1.84-.54-2.04-1.68-.07-.41-.15-.82-.17-1.23-.53-9.48-1.03-18.96-1.58-28.43-.59-10.1-1.22-20.2-1.83-30.29-.23-3.78-.44-7.56-.66-11.34-.02,0-.04,0-.06,0Z"/>
        <path class="cls-1" d="m51.11,74.77c0,11.83,0,23.66,0,35.5,0,1.9-.42,2.59-1.75,2.82-1.23.21-2.27-.55-2.32-1.8-.06-1.54,0-3.08,0-4.62,0-22.33,0-44.66,0-66.99,0-.46,0-.92.02-1.37.05-1.16.84-1.93,1.98-1.94,1.11-.02,2.02.88,2.02,2.05,0,10.46,0,20.91,0,31.37,0,1.67,0,3.33,0,5,.02,0,.03,0,.05,0Z"/>
      </g>
    </g>
  </g>
</svg>