<?xml version="1.0" encoding="UTF-8"?>
<svg id="Capa_2" data-name="Capa 2" xmlns="http://www.w3.org/2000/svg" viewBox="0 0 116.31 84.73">
  <defs>
    <style>
      .cls-1 {
        fill: #fff;
      }
    </style>
  </defs>
  <g id="Capa_1-2" data-name="Capa 1">
    <g id="SZuZO2">
      <g>
        <path class="cls-1" d="m18.16,48.09c.08-.13.16-.27.25-.4.6,0,1.21,0,1.81,0,29.48,0,58.95,0,88.43-.01.91,0,1.82,0,2.73-.07,3.94-.33,6.03-3.98,4.35-7.56-1.14-2.43-3.27-2.93-5.67-2.93-30.01,0-60.03.01-90.04.02-.55,0-1.09,0-1.84,0,.28-.37.38-.54.52-.68,8.59-8.6,17.19-17.18,25.77-25.79.81-.82,1.6-1.69,2.24-2.64,1.23-1.84,1.11-3.79-.03-5.61-1.88-3.01-5.69-3.23-8.4-.52-9.57,9.55-19.12,19.11-28.67,28.68-2.71,2.72-5.43,5.44-8.06,8.25-2.06,2.2-2.02,4.87-.06,7.15.43.5.91.96,1.37,1.43,10.61,10.61,21.23,21.22,31.85,31.82,1.43,1.43,2.84,2.89,4.34,4.25,1.49,1.36,3.28,1.58,5.09.79,1.94-.85,3.15-2.36,3.36-4.55.22-2.34-1.25-3.83-2.73-5.3-8.04-8.04-16.08-16.07-24.14-24.1-.78-.78-1.64-1.49-2.46-2.23Z"/>
        <path d="m18.16,48.09c.82.74,1.68,1.45,2.46,2.23,8.05,8.03,16.09,16.06,24.14,24.1,1.48,1.47,2.95,2.96,2.73,5.3-.21,2.18-1.42,3.7-3.36,4.55-1.8.79-3.6.57-5.09-.79-1.49-1.36-2.91-2.82-4.34-4.25-10.62-10.6-21.23-21.21-31.85-31.82-.47-.47-.94-.93-1.37-1.43-1.97-2.28-2.01-4.95.06-7.15,2.63-2.81,5.34-5.53,8.06-8.25C19.14,21,28.7,11.44,38.27,1.89c2.71-2.71,6.52-2.48,8.4.52,1.14,1.82,1.26,3.77.03,5.61-.64.95-1.42,1.82-2.24,2.64-8.58,8.61-17.18,17.19-25.77,25.79-.14.14-.24.31-.52.68.75,0,1.29,0,1.84,0,30.01,0,60.03,0,90.04-.02,2.4,0,4.53.5,5.67,2.93,1.68,3.58-.41,7.23-4.35,7.56-.9.08-1.82.07-2.73.07-29.48,0-58.95,0-88.43.01-.6,0-1.21,0-1.81,0-.08.13-.16.27-.25.4Z"/>
      </g>
    </g>
  </g>
</svg>