<?xml version="1.0" encoding="UTF-8"?>
<svg id="Capa_2" data-name="Capa 2" xmlns="http://www.w3.org/2000/svg" viewBox="0 0 126.95 95.29">
  <g id="Capa_1-2" data-name="Capa 1">
    <g id="_2YR6gL" data-name="2YR6gL">
      <g>
        <path d="m126.95,8.47c-.19.66-.36,1.34-.59,1.99-1.14,3.27-3.96,5.27-7.68,5.44-.33.02-.66,0-.99,0-36.24,0-72.49,0-108.73-.02-1.3,0-2.66-.16-3.89-.57C1.92,14.28-.26,10.79.03,7.57.37,3.73,2.76.96,6.36.32c1.09-.19,2.22-.28,3.33-.28C45.77.03,81.85.06,117.93,0c4.6,0,7.94,2.51,8.66,6.36.04.22.24.41.37.62v1.49Z"/>
        <path d="m126.95,48.16c-.19.66-.36,1.34-.59,1.99-1.14,3.27-3.96,5.27-7.68,5.44-.33.02-.66,0-.99,0-36.24,0-72.49,0-108.73-.02-1.3,0-2.66-.16-3.89-.57C1.92,53.97-.26,50.48.03,47.26c.34-3.84,2.73-6.61,6.34-7.24,1.09-.19,2.22-.28,3.33-.28,36.08-.01,72.16.02,108.24-.04,4.6,0,7.94,2.51,8.66,6.36.04.22.24.41.37.62v1.49Z"/>
        <path d="m126.95,87.85c-.19.66-.36,1.34-.59,1.99-1.14,3.27-3.96,5.27-7.68,5.44-.33.02-.66,0-.99,0-36.24,0-72.49,0-108.73-.02-1.26,0-2.58-.15-3.78-.53-3.22-1.02-5.45-4.51-5.16-7.8.34-3.84,2.73-6.61,6.34-7.24,1.09-.19,2.22-.28,3.33-.28,36.08-.01,72.16.02,108.24-.04,4.6,0,7.94,2.51,8.66,6.36.04.22.24.41.37.62v1.49Z"/>
      </g>
    </g>
  </g>
</svg>