<?xml version="1.0" encoding="UTF-8"?>
<svg id="Capa_2" data-name="Capa 2" xmlns="http://www.w3.org/2000/svg" viewBox="0 0 127.35 126.15">
  <defs>
    <style>
      .cls-1 {
        fill: #fff;
      }
    </style>
  </defs>
  <g id="Capa_1-2" data-name="Capa 1">
    <g id="XfH6gG">
      <g>
        <path class="cls-1" d="m63.67,126.15c17.9,0,35.8,0,53.7,0,2.2,0,4.19-.55,6.03-1.76,3.19-2.1,3.92-5.29,3.92-8.78.01-20.83-.02-41.67.03-62.5.01-4.36-1.53-7.68-5.09-10.31-6.63-4.89-13.09-9.99-19.62-15.01-10.73-8.25-21.44-16.53-32.2-24.74-1.41-1.08-2.97-2.1-4.63-2.66-3-1.02-5.65.17-8.05,2.01-4.12,3.18-8.24,6.37-12.37,9.54-13.73,10.56-27.46,21.13-41.21,31.67C1.34,45.78,0,48.64,0,52.18c0,21.26-.01,42.52,0,63.78,0,6.24,4.03,10.2,10.24,10.19,17.81,0,35.61,0,53.42,0Z"/>
        <path d="m63.67,126.15c-17.81,0-35.61,0-53.42,0-6.22,0-10.24-3.95-10.24-10.19C0,94.69,0,73.43,0,52.18c0-3.53,1.33-6.39,4.18-8.58,13.75-10.54,27.47-21.11,41.21-31.67,4.13-3.17,8.24-6.36,12.37-9.54,2.39-1.84,5.04-3.03,8.05-2.01,1.66.56,3.22,1.59,4.63,2.66,10.76,8.21,21.47,16.49,32.2,24.74,6.53,5.02,12.99,10.13,19.62,15.01,3.57,2.63,5.1,5.96,5.09,10.31-.06,20.83-.02,41.67-.03,62.5,0,3.49-.73,6.69-3.92,8.78-1.84,1.21-3.83,1.76-6.03,1.76-17.9-.01-35.8,0-53.7,0Zm22.73-9.14h31.83c0-.63,0-1.14,0-1.66,0-20.84-.01-41.68.02-62.51,0-1.33-.35-2.13-1.48-2.99-8.22-6.23-16.34-12.61-24.52-18.91-7.65-5.89-15.33-11.75-22.98-17.63-1.86-1.43-3.7-2.89-5.49-4.29-4.96,3.77-9.76,7.38-14.53,11.04-13.03,10-26.05,20.03-39.09,30.01-.75.57-1.08,1.11-1.08,2.08.03,21.12.02,42.24.02,63.37v1.52h31.83c0-.59,0-1.1,0-1.61,0-8.67-.02-17.33.02-26,0-1.36.15-2.75.43-4.08,2.55-12.21,13.94-20,26.24-17.97,9.9,1.63,17.96,10.32,18.51,20.39.35,6.38.21,12.78.27,19.17.03,3.31,0,6.62,0,10.08Zm-9.09.05c0-.51,0-.92,0-1.34,0-8.67.01-17.33,0-26-.02-7.67-5.99-13.63-13.6-13.61-7.75.02-13.66,5.92-13.67,13.67,0,8.57,0,17.14,0,25.71,0,.5,0,1,0,1.56h27.28Z"/>
        <path class="cls-1" d="m86.4,117.01c0-3.46.02-6.77,0-10.08-.06-6.39.07-12.79-.27-19.17-.55-10.07-8.61-18.76-18.51-20.39-12.29-2.02-23.68,5.76-26.24,17.97-.28,1.33-.42,2.72-.43,4.08-.04,8.67-.02,17.33-.02,26,0,.51,0,1.02,0,1.61H9.1v-1.52c0-21.12,0-42.24-.02-63.37,0-.96.33-1.5,1.08-2.08,13.05-9.98,26.06-20.01,39.09-30.01,4.77-3.66,9.57-7.28,14.53-11.04,1.79,1.4,3.63,2.86,5.49,4.29,7.66,5.88,15.34,11.73,22.98,17.63,8.17,6.3,16.29,12.67,24.52,18.91,1.13.86,1.49,1.66,1.48,2.99-.04,20.84-.02,41.68-.02,62.51,0,.52,0,1.03,0,1.66h-31.83Z"/>
        <path class="cls-1" d="m77.31,117.07h-27.28c0-.56,0-1.06,0-1.56,0-8.57,0-17.14,0-25.71,0-7.76,5.92-13.66,13.67-13.67,7.61-.02,13.59,5.94,13.6,13.61.02,8.67,0,17.33,0,26,0,.41,0,.83,0,1.34Z"/>
      </g>
    </g>
  </g>
</svg>