<?xml version="1.0" encoding="UTF-8"?>
<svg id="Capa_2" data-name="Capa 2" xmlns="http://www.w3.org/2000/svg" viewBox="0 0 112.06 111.01">
  <defs>
    <style>
      .cls-1 {
        fill: #fff;
      }
    </style>
  </defs>
  <g id="Capa_1-2" data-name="Capa 1">
    <g id="XfH6gG">
      <g>
        <path class="cls-1" d="m56.03,111c15.75,0,31.5,0,47.25,0,1.93,0,3.69-.49,5.31-1.55,2.81-1.84,3.45-4.66,3.45-7.73.01-18.33-.02-36.66.03-54.99.01-3.84-1.34-6.76-4.48-9.08-5.83-4.3-11.52-8.79-17.26-13.21-9.44-7.26-18.87-14.55-28.34-21.77-1.24-.95-2.62-1.85-4.07-2.34-2.64-.9-4.98.15-7.08,1.77-3.63,2.8-7.25,5.6-10.88,8.4C27.86,19.79,15.79,29.09,3.69,38.36,1.18,40.28,0,42.8,0,45.91c0,18.71-.01,37.41,0,56.12,0,5.49,3.54,8.97,9.01,8.97,15.67,0,31.33,0,47,0Z"/>
        <path d="m56.03,111c-15.67,0-31.33,0-47,0-5.47,0-9.01-3.48-9.01-8.97C0,83.32,0,64.62,0,45.91c0-3.11,1.17-5.63,3.68-7.55,12.1-9.27,24.18-18.57,36.26-27.87,3.63-2.79,7.25-5.6,10.88-8.4,2.1-1.62,4.44-2.67,7.08-1.77,1.46.5,2.84,1.4,4.07,2.34,9.47,7.23,18.89,14.51,28.34,21.77,5.74,4.42,11.43,8.91,17.26,13.21,3.14,2.32,4.49,5.24,4.48,9.08-.05,18.33-.02,36.66-.03,54.99,0,3.07-.64,5.89-3.45,7.73-1.62,1.06-3.37,1.55-5.31,1.55-15.75-.01-31.5,0-47.25,0Zm20-8.04h28.01c0-.55,0-1.01,0-1.46,0-18.34,0-36.67.02-55.01,0-1.17-.31-1.87-1.31-2.63-7.24-5.49-14.38-11.09-21.57-16.64-6.73-5.19-13.49-10.34-20.22-15.51-1.64-1.26-3.26-2.54-4.83-3.78-4.36,3.31-8.59,6.5-12.79,9.72-11.47,8.8-22.92,17.62-34.4,26.41-.66.51-.95.98-.95,1.83.03,18.59.02,37.17.02,55.76v1.34h28.01c0-.52,0-.97,0-1.42,0-7.63-.02-15.25.02-22.88,0-1.2.13-2.42.38-3.59,2.25-10.75,12.27-17.6,23.09-15.82,8.71,1.43,15.81,9.08,16.29,17.94.3,5.61.19,11.24.24,16.87.03,2.91,0,5.83,0,8.87Zm-8,.05c0-.45,0-.81,0-1.18,0-7.63.01-15.25,0-22.88-.02-6.75-5.27-11.99-11.97-11.98-6.82.02-12.02,5.21-12.03,12.03,0,7.54,0,15.08,0,22.63,0,.44,0,.88,0,1.37h24.01Z"/>
        <path class="cls-1" d="m76.03,102.96c0-3.04.02-5.95,0-8.87-.05-5.62.07-11.26-.24-16.87-.48-8.86-7.57-16.51-16.29-17.94-10.82-1.78-20.84,5.07-23.09,15.82-.25,1.17-.37,2.39-.38,3.59-.03,7.63-.02,15.25-.02,22.88,0,.45,0,.9,0,1.42H8.01v-1.34c0-18.59,0-37.17-.02-55.76,0-.85.29-1.32.95-1.83,11.48-8.79,22.93-17.61,34.4-26.41,4.2-3.22,8.42-6.4,12.79-9.72,1.57,1.23,3.19,2.52,4.83,3.78,6.74,5.17,13.5,10.33,20.22,15.51,7.19,5.54,14.34,11.15,21.57,16.64,1,.76,1.31,1.46,1.31,2.63-.03,18.34-.02,36.67-.02,55.01,0,.45,0,.91,0,1.46h-28.01Z"/>
        <path class="cls-1" d="m68.03,103.01h-24.01c0-.49,0-.93,0-1.37,0-7.54,0-15.08,0-22.63,0-6.82,5.21-12.02,12.03-12.03,6.7-.01,11.95,5.23,11.97,11.98.02,7.63,0,15.25,0,22.88,0,.36,0,.73,0,1.18Z"/>
      </g>
    </g>
  </g>
</svg>