<?xml version="1.0" encoding="UTF-8"?>
<svg id="Capa_2" data-name="Capa 2" xmlns="http://www.w3.org/2000/svg" viewBox="0 0 126.82 112.02">
  <g id="Capa_1-2" data-name="Capa 1">
    <g id="jrY3gV">
      <path d="m126.82,32.09v6.45c-.17.39-.44.77-.49,1.18-.15,1.31-.09,2.66-.35,3.95-1.26,6.14-3.72,11.79-7.24,16.96-5.39,7.9-11.97,14.77-19.08,21.09-10.6,9.41-21.35,18.65-32.12,27.87-3.96,3.39-4.74,3.09-8.37.03-6.48-5.46-12.86-11.03-19.26-16.58-9.01-7.83-18.2-15.47-25.98-24.61-4.34-5.09-8.29-10.45-10.79-16.67C-.43,42.9-1.04,33.81,1.77,24.59c2.66-8.74,7.67-15.67,15.65-20.26C24.1.48,31.32-.84,38.91.52c8.85,1.59,15.55,6.56,20.74,13.73,1.25,1.72,2.38,3.53,3.66,5.45,1.16-1.75,2.21-3.37,3.3-4.95C74.75,2.95,88.59-3.31,103.83,1.84c12.89,4.36,21.55,17.24,22.33,29.77.05.73.12,1.45.22,2.51.2-.91.32-1.47.44-2.03Z"/>
    </g>
  </g>
</svg>