<?xml version="1.0" encoding="UTF-8"?>
<svg id="Capa_2" data-name="Capa 2" xmlns="http://www.w3.org/2000/svg" viewBox="0 0 126.77 111.82">
  <defs>
    <style>
      .cls-1 {
        fill: #fff;
      }
    </style>
  </defs>
  <g id="Capa_1-2" data-name="Capa 1">
    <g id="K5ivec">
      <g>
        <path d="m126.77,39.1c-.17.25-.43.47-.48.74-.47,2.5-.73,5.06-1.39,7.51-2.24,8.35-7.23,15.11-12.7,21.58-8.1,9.58-17.84,17.43-27.24,25.62-6.01,5.24-12.12,10.37-18.18,15.55-.16.13-.31.27-.48.39-2.29,1.75-3.76,1.78-6.01,0-1.85-1.46-3.67-2.95-5.44-4.51-11.38-10.02-22.94-19.85-34.05-30.17-6.96-6.47-12.98-13.89-17.04-22.65C.72,46.64-.49,39.77.18,32.56c.71-7.7,3.35-14.63,8.27-20.59C14.34,4.85,21.93.87,31.2.15c11.28-.87,20.01,3.88,27,12.33,1.86,2.25,3.4,4.76,5.17,7.27.23-.36.49-.75.72-1.15,3.49-6.11,8.1-11.17,14.2-14.73,5.64-3.3,11.79-4.43,18.26-3.62,12.02,1.51,20.55,7.96,25.99,18.64,2.18,4.27,3.55,8.79,3.62,13.64,0,.45.11.9.19,1.56.17-.79.3-1.37.43-1.94v6.95Zm-63.55,64.25c.45-.36.85-.65,1.22-.97,4.18-3.57,8.39-7.11,12.52-10.74,9.12-8.02,18.62-15.63,27-24.48,4.39-4.63,8.51-9.47,11.42-15.21,5.01-9.91,5.47-19.99.65-30.04-7.95-16.57-29.43-19.89-41.46-5.77-3.19,3.75-5.5,8.02-7.29,12.58-.74,1.9-1.62,3.8-4.03,3.8-2.35,0-3.11-1.94-3.96-3.73-1.36-2.86-2.63-5.8-4.29-8.49-4.41-7.13-10.49-11.95-19.12-12.78-8.68-.84-16,2-21.6,8.68-6.49,7.74-8.09,16.84-6.4,26.56.98,5.66,3.72,10.63,7.01,15.3,3.18,4.52,6.81,8.65,10.9,12.33,9.67,8.71,19.46,17.3,29.22,25.91,2.69,2.37,5.45,4.67,8.23,7.05Z"/>
        <path class="cls-1" d="m63.22,103.35c-2.78-2.38-5.54-4.67-8.23-7.05-9.76-8.61-19.54-17.2-29.22-25.91-4.09-3.68-7.72-7.82-10.9-12.33-3.29-4.67-6.02-9.64-7.01-15.3-1.69-9.72-.1-18.82,6.4-26.56,5.6-6.68,12.92-9.52,21.6-8.68,8.64.84,14.72,5.65,19.12,12.78,1.66,2.69,2.93,5.62,4.29,8.49.85,1.79,1.61,3.73,3.96,3.73,2.41,0,3.28-1.89,4.03-3.8,1.79-4.57,4.1-8.84,7.29-12.58,12.03-14.12,33.51-10.8,41.46,5.77,4.82,10.05,4.36,20.14-.65,30.04-2.9,5.74-7.03,10.57-11.42,15.21-8.38,8.84-17.87,16.45-27,24.48-4.13,3.63-8.34,7.16-12.52,10.74-.37.32-.77.61-1.22.97Z"/>
      </g>
    </g>
  </g>
</svg>