<?xml version="1.0" encoding="UTF-8"?>
<svg id="Capa_2" xmlns="http://www.w3.org/2000/svg" viewBox="0 0 48.42 42.77">
    <defs>
        <style>.cls-1{fill:#e5315f;stroke-width:0px;}</style>
    </defs>
    <g id="Capa_1-2">
        <g id="jrY3gV">
            <path class="cls-1"
                  d="M48.42,12.25v2.46c-.06.15-.17.29-.19.45-.06.5-.03,1.02-.14,1.51-.48,2.34-1.42,4.5-2.77,6.48-2.06,3.02-4.57,5.64-7.29,8.05-4.05,3.59-8.15,7.12-12.26,10.64-1.51,1.3-1.81,1.18-3.2,0-2.47-2.09-4.91-4.21-7.35-6.33-3.44-2.99-6.95-5.91-9.92-9.4-1.66-1.95-3.17-3.99-4.12-6.36C-.17,16.38-.4,12.91.67,9.39,1.69,6.05,3.6,3.4,6.65,1.65,9.2.18,11.96-.32,14.86.2c3.38.61,5.94,2.5,7.92,5.24.48.66.91,1.35,1.4,2.08.44-.67.84-1.29,1.26-1.89,3.11-4.5,8.39-6.89,14.21-4.93,4.92,1.67,8.23,6.58,8.53,11.37.02.28.05.56.08.96.08-.35.12-.56.17-.77Z"/>
        </g>
    </g>
</svg>