<?xml version="1.0" encoding="UTF-8"?>
<svg id="Capa_2" data-name="Capa 2" xmlns="http://www.w3.org/2000/svg" viewBox="0 0 126.73 87.33">
  <defs>
    <style>
      .cls-1 {
        fill: #fff;
      }
    </style>
  </defs>
  <g id="Capa_1-2" data-name="Capa 1">
    <g id="sx7oXg">
      <g>
        <path class="cls-1" d="m75.46,35.72c-13.77,0-51.53,0-65.3.01-1.15,0-2.32.09-3.45.27-3.47.54-5.89,2.92-6.56,6.36-.6,3.08.89,6.23,3.81,7.97,1.84,1.1,3.92,1.25,5.99,1.25,27.16.02,78.32.02,105.49,0,1.44,0,2.89-.1,4.32-.26,3.73-.42,6.33-2.95,6.91-6.85.41-2.71-.99-6.37-4.24-7.7-1.63-.67-3.52-1-5.29-1.01-13.89-.08-27.78-.04-41.67-.04Zm-4.19-19.85c12.4,0,24.79,0,37.19-.01,1.19,0,2.4-.1,3.57-.27,3.56-.53,6.16-3.09,6.71-6.51.52-3.26-1.14-6.67-4.32-8.01-1.66-.7-3.6-1.02-5.41-1.02C84.14-.02,35.26,0,10.39.01c-1.19,0-2.4.1-3.58.27C3.2.82.66,3.36.09,6.92c-.5,3.12,1.2,6.54,4.34,7.89,1.61.7,3.51,1.01,5.29,1.02,12.52.08,49.04.04,61.56.04Zm-13.75,55.57c-7.85,0-39.7-.02-47.55.02-1.31,0-2.65.14-3.92.43-3.27.74-5.25,2.87-5.86,6.13-.59,3.19.62,5.74,3.19,7.65,1.9,1.41,4.14,1.62,6.37,1.62,15.33.04,54.66.03,69.99,0,1.44,0,2.89-.1,4.32-.26,3.94-.46,6.86-3.61,6.97-7.46.12-3.84-2.5-7.08-6.39-7.82-1.09-.21-2.21-.31-3.32-.31-7.93-.03-15.87-.01-23.8-.01Z"/>
        <path d="m75.46,35.72c13.89,0,27.78-.04,41.67.04,1.77.01,3.66.34,5.29,1.01,3.25,1.33,4.65,5,4.24,7.7-.59,3.9-3.19,6.42-6.91,6.85-1.43.16-2.88.26-4.32.26-27.16.02-78.32.02-105.49,0-2.07,0-4.15-.15-5.99-1.25-2.92-1.74-4.4-4.89-3.81-7.97.67-3.44,3.09-5.82,6.56-6.36,1.14-.18,2.3-.26,3.45-.27,13.77-.02,51.53-.01,65.3-.01Z"/>
        <path d="m71.27,15.88c-12.52,0-49.04.04-61.56-.04-1.77-.01-3.67-.33-5.29-1.02C1.29,13.46-.42,10.04.09,6.92.66,3.36,3.2.82,6.81.29,7.99.11,9.2.01,10.39.01,35.26,0,84.14-.02,109.01.05c1.81,0,3.75.32,5.41,1.02,3.18,1.35,4.84,4.76,4.32,8.01-.54,3.42-3.14,5.98-6.71,6.51-1.18.18-2.38.27-3.57.27-12.4.02-24.79.01-37.19.01Z"/>
        <path d="m57.52,71.44c7.93,0,15.87-.01,23.8.01,1.11,0,2.23.1,3.32.31,3.89.74,6.51,3.98,6.39,7.82-.12,3.85-3.03,7-6.97,7.46-1.43.17-2.88.26-4.32.26-15.33.02-54.66.03-69.99,0-2.23,0-4.47-.21-6.37-1.62-2.58-1.92-3.78-4.47-3.19-7.65.6-3.26,2.58-5.39,5.86-6.13,1.28-.29,2.61-.42,3.92-.43,7.85-.04,39.7-.02,47.55-.02Z"/>
      </g>
    </g>
  </g>
</svg>