<?xml version="1.0" encoding="UTF-8"?>
<svg id="Capa_2" data-name="Capa 2" xmlns="http://www.w3.org/2000/svg" viewBox="0 0 73.5 73.46">
  <defs>
    <style>
      .cls-1 {
        fill: #fff;
      }
    </style>
  </defs>
  <g id="Capa_1-2" data-name="Capa 1">
    <g id="_1yVm86" data-name="1yVm86">
      <g>
        <path class="cls-1" d="m31.39,41.97c.03.39.07.7.07,1.02,0,2.27,0,4.55.01,6.82.01,4.59-.05,14.18.07,18.76.09,3.45,3.34,5.64,6.64,4.66,2.67-.79,3.86-2.5,3.86-5.74,0-6.36-.01-17.73-.1-24.09-.02-1.21.31-1.5,1.5-1.49,6.69.06,18.39.11,25.08,0,3.5-.06,5.71-3.36,4.76-6.72-.74-2.61-2.47-3.77-5.79-3.78-6.45-.02-17.9-.02-24.34.03-.95,0-1.17-.24-1.16-1.17.05-5.21.06-15.42.03-20.62,0-1.81-.01-3.65-.28-5.43C41.37,1.78,39.35.15,36.89,0c-2.22-.13-4.46,1.47-5.06,3.79-.28,1.1-.34,2.29-.34,3.43-.03,5.99,0,16.99-.01,22.98,0,.39-.04.78-.07,1.21-.36,0-.56,0-.77,0-6.86,0-18.72-.05-25.58.05C1.91,31.51,0,33.66,0,36.72c0,2.97,1.95,5,5,5.22.49.03.99.06,1.49.06,4.17,0,13.35-.02,17.52-.02,2.43,0,4.86,0,7.38,0Z"/>
        <path d="m31.39,41.97c-2.53,0-4.95,0-7.38,0-4.17,0-13.35.02-17.52.02-.5,0-.99-.02-1.49-.06C1.95,41.72,0,39.68,0,36.72c0-3.06,1.91-5.21,5.06-5.25,6.86-.1,18.72-.04,25.58-.05.2,0,.41,0,.77,0,.03-.43.07-.82.07-1.21,0-5.99-.02-16.99.01-22.98,0-1.15.06-2.33.34-3.43C32.43,1.47,34.68-.12,36.89,0c2.45.15,4.47,1.77,4.85,4.2.27,1.78.27,3.62.28,5.43.03,5.21.02,15.42-.03,20.62,0,.93.21,1.17,1.16,1.17,6.45-.05,17.9-.05,24.34-.03,3.32.01,5.05,1.18,5.79,3.78.95,3.36-1.26,6.66-4.76,6.72-6.69.11-18.39.06-25.08,0-1.19-.01-1.52.28-1.5,1.49.09,6.36.1,17.73.1,24.09,0,3.24-1.19,4.95-3.86,5.74-3.3.98-6.55-1.22-6.64-4.66-.12-4.58-.06-14.17-.07-18.76,0-2.27,0-4.55-.01-6.82,0-.32-.04-.63-.07-1.02Z"/>
      </g>
    </g>
  </g>
</svg>