<?xml version="1.0" encoding="UTF-8"?>
<svg id="Capa_2" data-name="Capa 2" xmlns="http://www.w3.org/2000/svg" viewBox="0 0 126.87 126.85">
  <defs>
    <style>
      .cls-1 {
        fill: #fff;
      }
    </style>
  </defs>
  <g id="Capa_1-2" data-name="Capa 1">
    <g id="dSbVJQ">
      <g>
        <path d="m126.87,56.89v12.16c-.12-.33-.24-.65-.34-.92-1.29,15.44-7.29,28.77-18.23,39.77-10.94,11-24.17,17.24-39.5,18.49.52.12,1.26.29,2,.46h-15.88c1.06-.13,2.12-.27,3.45-.43-17.64-1.5-32.01-8.94-43.27-22.13C3.79,91.03-1.19,75.45.24,58.13,2.82,26.89,28.05,2.12,58.89.15c16.03-1.02,30.57,3.23,43.2,13.14,14.81,11.61,22.97,26.94,24.41,45.53.09-.49.23-1.21.36-1.93Zm-62.32,53.35c1.5-.15,4.2-.24,6.84-.7,8.22-1.43,15.57-4.83,21.98-10.18,1.72-1.44,2.93-3.22,3.27-5.52.71-4.83-.58-9.21-3.18-13.18-4.17-6.36-10.24-9.48-17.76-9.6-8.18-.14-16.37-.04-24.56-.02-.95,0-1.89.13-2.84.24-10.33,1.16-18.37,10.1-18.42,20.49-.02,3.18,1.19,5.8,3.65,7.79,8.7,7.03,18.65,10.58,31.01,10.69Zm-1.8-91.41c-11.48.11-21.82,10.34-20.23,23.73,1.15,9.71,9.81,19.02,22.35,18.24,10.84-.68,20.1-9.8,19.5-21.97-.62-12.72-11.38-20.5-21.62-20.01Z"/>
        <path class="cls-1" d="m64.55,110.24c-12.36-.11-22.32-3.65-31.01-10.69-2.47-1.99-3.67-4.62-3.65-7.79.05-10.39,8.09-19.34,18.42-20.49.94-.11,1.89-.23,2.84-.24,8.19-.02,16.37-.12,24.56.02,7.52.13,13.6,3.25,17.76,9.6,2.6,3.97,3.9,8.35,3.18,13.18-.34,2.3-1.55,4.09-3.27,5.52-6.41,5.35-13.76,8.75-21.98,10.18-2.64.46-5.34.55-6.84.7Z"/>
        <path class="cls-1" d="m62.75,18.83c10.24-.49,21,7.28,21.62,20.01.6,12.17-8.67,21.29-19.5,21.97-12.54.78-21.21-8.52-22.35-18.24-1.58-13.4,8.76-23.62,20.23-23.73Z"/>
      </g>
    </g>
  </g>
</svg>