<?xml version="1.0" encoding="UTF-8"?>
<svg id="Capa_2" data-name="Capa 2" xmlns="http://www.w3.org/2000/svg" viewBox="0 0 119.19 63.82">
  <defs>
    <style>
      .cls-1 {
        fill: #fff;
      }
    </style>
  </defs>
  <g id="Capa_1-2" data-name="Capa 1">
    <g id="Hn5LvC">
      <g>
        <path class="cls-1" d="m60.5.33l-.03-.33c-4.01.48-8.09.65-12.02,1.49-12.3,2.63-23.43,7.95-33.33,15.67-4.65,3.63-9,7.64-13.37,11.62-2.35,2.14-2.27,3.96-.18,6.35.19.22.39.43.6.63,8.2,8.08,17.16,15.13,27.54,20.24,8.59,4.23,17.55,7.25,27.19,7.74,10.25.53,19.91-2.04,29.22-6.02,12.16-5.2,22.23-13.4,31.58-22.56,1.94-1.9,1.97-4,.15-6.05-1.04-1.17-2.21-2.22-3.36-3.29-10.06-9.39-21.1-17.21-34.26-21.72-6.4-2.2-12.92-3.75-19.73-3.78Z"/>
        <path d="m60.5.33c6.82.03,13.33,1.59,19.73,3.78,13.15,4.51,24.2,12.33,34.26,21.72,1.15,1.07,2.32,2.12,3.36,3.29,1.82,2.04,1.79,4.15-.15,6.05-9.35,9.16-19.42,17.36-31.58,22.56-9.31,3.98-18.97,6.55-29.22,6.02-9.65-.49-18.6-3.51-27.19-7.74-10.38-5.11-19.34-12.16-27.54-20.24-.21-.2-.41-.41-.6-.63-2.09-2.39-2.17-4.21.18-6.35,4.36-3.98,8.71-8,13.37-11.62C25.02,9.44,36.15,4.12,48.45,1.49c3.93-.84,8.01-1.02,12.02-1.49l.03.33ZM9.38,31.98c.38.4.56.63.78.81,3.84,3.13,7.52,6.49,11.57,9.33,10.82,7.62,22.45,13.25,36.05,13.64,6.47.19,12.78-.57,18.88-2.77,12.32-4.43,22.97-11.55,32.56-20.35.2-.18.34-.42.54-.67-.8-.72-1.53-1.38-2.27-2.05-6.94-6.26-14.57-11.55-22.97-15.64-13.46-6.56-27.38-7.99-41.73-3.3-10.23,3.35-19.18,8.97-27.42,15.8-2,1.66-3.92,3.4-5.98,5.18Z"/>
        <path d="m79.45,32.11c0,10.93-8.95,19.8-19.94,19.79-11.07,0-19.77-8.97-19.76-20.34.02-10.46,9.12-19.38,19.75-19.36,11.1.02,19.96,8.86,19.95,19.9Z"/>
      </g>
    </g>
  </g>
</svg>